<?xml version="1.0" encoding="utf-8"?>
<!-- Generator: Adobe Illustrator 25.2.1, SVG Export Plug-In . SVG Version: 6.00 Build 0)  -->
<svg version="1.1" id="Ebene_1" xmlns="http://www.w3.org/2000/svg" xmlns:xlink="http://www.w3.org/1999/xlink" x="0px" y="0px"
	 viewBox="0 0 500 500" style="enable-background:new 0 0 500 500;" xml:space="preserve">
<style type="text/css">
	.st0{fill-rule:evenodd;clip-rule:evenodd;fill:#223A6F;stroke:#1A2C4E;stroke-width:2;}
	.st1{opacity:0.23;}
	.st2{clip-path:url(#SVGID_2_);fill-rule:evenodd;clip-rule:evenodd;fill:#E8E9EA;}
	.st3{fill-rule:evenodd;clip-rule:evenodd;fill:#682579;stroke:#4D305B;stroke-width:2;}
	.st4{fill-rule:evenodd;clip-rule:evenodd;fill:#FEFEFF;}
	.st5{fill-rule:evenodd;clip-rule:evenodd;fill:#FDFEFE;}
	.st6{fill-rule:evenodd;clip-rule:evenodd;fill:#FFFFFF;}
	.st7{fill-rule:evenodd;clip-rule:evenodd;fill:#682579;}
	.st8{opacity:0.1;fill-rule:evenodd;clip-rule:evenodd;fill:#F6F6F6;stroke:#8F60A4;stroke-width:2;enable-background:new    ;}
</style>
<g id="A">
	<g>
		<path class="st0" d="M138.6,322.6c-23,0-46,0.1-69,0c-11.7-0.1-13.8-2.8-11.2-14.2c8.9-38.7,18.1-77.4,26.8-116.1
			c2.3-10.4,7.4-15,18.5-14.9c46,0.4,92.1,0.1,138.1,0.2c11.5,0,13.5,2.5,10.9,14.2c-8.4,38-16.9,76-25.5,114
			c-3.2,14.2-6.9,16.9-21.9,17C183.1,322.7,160.8,322.6,138.6,322.6z"/>
		<g class="st1">
			<g>
				<defs>
					<path id="SVGID_1_" d="M138.6,322.6c-23,0-46,0.1-69,0c-11.7-0.1-13.8-2.8-11.2-14.2c8.9-38.7,18.1-77.4,26.8-116.1
						c2.3-10.4,7.4-15,18.5-14.9c46,0.4,92.1,0.1,138.1,0.2c11.5,0,13.5,2.5,10.9,14.2c-8.4,38-16.9,76-25.5,114
						c-3.2,14.2-6.9,16.9-21.9,17C183.1,322.7,160.8,322.6,138.6,322.6z"/>
				</defs>
				<clipPath id="SVGID_2_">
					<use xlink:href="#SVGID_1_"  style="overflow:visible;"/>
				</clipPath>
				<path class="st2" d="M-94.5,116.1c-23,0-46,0.1-69-0.1c-11.7-0.1-13.8-2.8-11.2-14.2c8.9-38.7,18.1-77.4,26.8-116.1
					c2.3-10.4,7.4-15,18.5-14.9c46,0.4,92.1,0.1,138.1,0.2c11.5,0,13.5,2.5,10.9,14.2c-8.4,38-16.9,76-25.5,114
					c-3.2,14.2-6.9,16.9-21.9,17C-50.1,116.1-72.3,116.1-94.5,116.1z"/>
			</g>
		</g>
		<path class="st3" d="M327.5,322.6c-23,0-46,0.1-69,0c-11.7-0.1-13.8-2.8-11.2-14.2c8.9-38.7,18.1-77.4,26.8-116.1
			c2.3-10.4,7.4-15,18.5-14.9c46,0.4,92.1,0.1,138.1,0.2c11.5,0,13.5,2.5,10.9,14.2c-8.4,38-16.9,76-25.5,114
			c-3.2,14.2-6.9,16.9-21.9,17C372,322.7,349.7,322.6,327.5,322.6z"/>
		<path class="st4" d="M158.2,246.8c-1.5-1.8-3.2-3.9-5-5.9c-10.2-11.3-20.3-22.7-30.6-33.8c-4.7-5.1-6.2-10-0.6-15.1
			c5.6-5,11.1-4.5,16.3,1.2c14.4,15.9,28.7,31.9,43.3,47.6c5.4,5.9,4.2,9.9-1.8,14.2c-23.1,16.7-46,33.6-68.9,50.4
			c-5.2,3.8-10.1,4.8-14.2-0.9c-4.6-6.2-0.3-9.9,4.4-13.3c17-12.4,34-24.8,50.9-37.4C154.4,252.1,157.8,251.1,158.2,246.8z"/>
		<path class="st5" d="M168.4,306.6c-5.6,0-11.1,0.2-16.7-0.1c-4.4-0.2-7.1-3-7-8.2c0.1-4.9,2.3-8.6,6.7-8.7
			c12.2-0.4,24.4-0.3,36.5,0c3.9,0.1,6.7,2.9,6.7,7.4c0,5.1-2.5,9.1-7.4,9.5C181,306.9,174.7,306.6,168.4,306.6
			C168.4,306.6,168.4,306.6,168.4,306.6z"/>
		<g>
			<path class="st6" d="M386.6,239.3c-0.1,0.4-1.8,12.1-16.3,19.2c-6.4,3.3-15.8,15-17.7,18.6l-1,1.1l-21.7-6l-0.3-1.4
				c0.2-4.1-1.6-18.8-5.6-25.2c-8.9-13.2-4-24.8-3.9-25.2c4.2-15.2,19.4-25,34.9-22.8l0,0c0,0,9.6,1.7,9.9,2.5
				c16.5,4.8,26.3,22.2,21.7,38.6L386.6,239.3L386.6,239.3L386.6,239.3z"/>
			<path class="st6" d="M326.3,287.3l21.7,6l2-7.3l-21.7-6L326.3,287.3z M324.1,295.2l21.5,5.9l-8.8,5.6l-8-2.2L324.1,295.2z"/>
			<path class="st7" d="M346.8,275.7l7.5-27.1l3.5,1c4.1,1.1,8.6-1.5,9.7-5.8c1.2-4.3-1.3-8.9-5.4-10s-8.6,1.5-9.7,5.8l-1,3.6
				l-3.5-1l1-3.6c1.2-4.3-1.1-8.8-5.4-10s-8.6,1.5-9.7,5.8c-1.2,4.3,1.3,8.9,5.4,10l3.5,1l-7.4,26.9l4.1,1.1l7.4-26.9l3.5,1
				l-7.5,27.1L346.8,275.7L346.8,275.7z M344.8,237.4l-1,3.6l-3.5-1c-1.8-0.5-3-2.7-2.5-4.6c0.6-2.1,2.6-3.2,4.5-2.7
				S345.1,235.5,344.8,237.4z M363.4,242.6c-0.5,1.9-2.6,3.2-4.5,2.7l-3.5-1l1-3.6c0.5-1.9,2.6-3.2,4.5-2.7
				C363,238.5,364,240.7,363.4,242.6z"/>
		</g>
		<path class="st8" d="M258.5,322.6c-11.7-0.1-13.8-2.8-11.2-14.2c8.9-38.7,18.1-77.4,26.8-116.1c2.3-10.4,7.4-15,18.5-14.9
			c46,0.4,92.1,0.1,138.1,0.2c11.5,0,13.5,2.5,10.9,14.2C433.2,229.7,281.5,322.7,258.5,322.6z"/>
		<path class="st8" d="M69.6,322.6c-11.7-0.1-13.8-2.8-11.2-14.2c8.9-38.7,18.1-77.4,26.8-116.1c2.3-10.4,7.4-15,18.5-14.9
			c46,0.4,92.1,0.1,138.1,0.2c11.5,0,13.5,2.5,10.9,14.2C244.3,229.7,92.6,322.7,69.6,322.6z"/>
	</g>
</g>
</svg>
